<?xml version="1.0" encoding="utf-8"?>
<svg version="1.1" id="Warstwa_1" xmlns="http://www.w3.org/2000/svg" xmlns:xlink="http://www.w3.org/1999/xlink" x="0px" y="0px"
	 viewBox="0 0 818.7 529" style="enable-background:new 0 0 818.7 529;" xml:space="preserve">
<style type="text/css">
	.st0{fill:none;stroke:#fff;stroke-miterlimit:10;}
	.st1{fill:none;stroke:#fff;stroke-width:0.25;stroke-miterlimit:10;}
</style>
<g id="Warstwa_2_1_">
	<path class="st0" d="M409.2,5C265.8,5,149.5,121.3,149.5,264.8c0,7.6,0.3,15.2,1,22.7c9.2,106.7,114.6,235.9,258.8,237
		c98.1,0.8,184.5-58.1,227.5-134.2c8.7-15.5,32.3-62.8,32.3-125.5C669,121.3,552.7,5,409.2,5z M268.6,412.7c-6.5,0-6.4-10,0-10
		C275.1,402.7,275,412.7,268.6,412.7z M365.8,352.7c-6.5,0-6.4-10,0-10C372.2,342.7,372.2,352.7,365.8,352.7z"/>
	<path class="st0" d="M-218.5,369.5"/>
	<path class="st0" d="M277,426c21.8,34.8,43.3,67.5,141.5,67.5c42.9,0,68.2,6.7,98.5,8"/>
	<path class="st0" d="M360.5,332.5c-1.4-7.2-5.5-30.7,6-54c16.3-33,88.2-38.9,93.9-39.6c143.8-18.9,106.6-2.4,106.1-2.4"/>
</g>
<g id="Warstwa_8">
</g>
<g id="Warstwa_6">
</g>
<g id="Warstwa_5">
	<path class="st0" d="M-212.5,381.5"/>
	<path class="st0" d="M382.5,362.5c15.1,11.2,20.5,29.4,62,41.6c15.9,4.7,36.9,13.4,90.5,16.8l73.6,5.8"/>
	<path class="st1" d="M345.5,346.5"/>
</g>
<g id="Warstwa_7">
</g>
<g id="Warstwa_3">
	<path class="st0" d="M0,322.6c67.4,2,119.5-7.3,154.2-16c45.9-11.5,117-35.7,180.7-63.8c12.5-5.5,58.6-26.1,111.6-31.9
		c15.2-1.7,28.5-1.8,40.1-2c37.2-0.5,84.5,13.4,86.9,21.5c3.6,12.1-73.4,9.2-89.8,54.9c-2.1,6-8.8,27,0,47.8
		c13,31,57.6,38.2,85.1,42.5c74.8,11.9,157.8,24.6,249.8,37.2"/>
</g>
<g id="Warstwa_4">
	<path class="st0" d="M102,392.2c67.2,10.8,112.3-0.2,141.9-13.3c18.4-8.1,65.3-26.6,77.6-16.4c10,8.4-21.4,28.9-11,47
		c15.9,27.5,44.7,36.1,82,45c29.6,7,53,11.8,108.7,8.7c79.8-4.4,79.8-4.4,79.8-4.4"/>
</g>
</svg>
